<svg xmlns="http://www.w3.org/2000/svg"  viewBox="0 0 64 64" width="512px" height="512px"><linearGradient id="XyS27xUHG8anRCGFhA5Wca" x1="31.131" x2="31.131" y1="28.71" y2="28.9" gradientUnits="userSpaceOnUse" spreadMethod="reflect"><stop offset="0" stop-color="#6dc7ff"/><stop offset="1" stop-color="#e6abff"/></linearGradient><path fill="url(#XyS27xUHG8anRCGFhA5Wca)" d="M31.198,28.797c-0.002,0.052-0.034,0.099-0.07,0.103s-0.065-0.034-0.062-0.086 c0.002-0.052,0.034-0.099,0.07-0.103S31.2,28.744,31.198,28.797z"/><linearGradient id="XyS27xUHG8anRCGFhA5Wcb" x1="29.698" x2="29.698" y1="24.415" y2="24.623" gradientUnits="userSpaceOnUse" spreadMethod="reflect"><stop offset="0" stop-color="#6dc7ff"/><stop offset="1" stop-color="#e6abff"/></linearGradient><path fill="url(#XyS27xUHG8anRCGFhA5Wcb)" d="M29.635,24.558c-0.022-0.053-0.011-0.114,0.024-0.135c0.035-0.022,0.081,0.005,0.102,0.058 c0.022,0.053,0.011,0.114-0.024,0.135C29.702,24.638,29.657,24.61,29.635,24.558z"/><linearGradient id="XyS27xUHG8anRCGFhA5Wcc" x1="32.5" x2="32.5" y1="21" y2="43" gradientUnits="userSpaceOnUse" spreadMethod="reflect"><stop offset="0" stop-color="#6dc7ff"/><stop offset="1" stop-color="#e6abff"/></linearGradient><path fill="url(#XyS27xUHG8anRCGFhA5Wcc)" d="M34.469,41.458l-0.032-12.183c0,0,0.391-0.149,0.659-0.32 c0.163-0.104,0.184-0.372,0.171-0.611c-0.006-0.108-0.411-2.588-0.443-2.786c-0.038-0.228-0.162-0.391-0.576-0.566 c-0.19-0.08-1.246-0.498-1.246-0.498l-0.061-0.255l-0.221-0.021l-0.008-0.257c0.262-0.216,0.355-0.754,0.355-0.754 c0.119-0.114,0.182-0.296,0.218-0.486c0.021-0.115-0.06-0.142-0.06-0.142c0.067-0.473,0.11-1.22-0.62-1.293 c0,0-0.039-0.08-0.085-0.108c-1.518-0.183-1.389,0.891-1.349,1.36c0,0-0.093,0.043-0.093,0.087c0,0.129,0,0.475,0.234,0.604 l0.141,0.82c0.383,0.175,0.42,0.301,0.42,0.301l-0.117,0.047l0.311,0.568l0.499-0.353c0,0,0.229,0.114,0.439,0.173 c0.234,0.863,0.093,2.292,0.029,2.848l-0.012,0.002c-0.134-0.993-1.393-3.343-1.754-3.439c0,0-0.236,0.095-0.479,0.217 c0.163-0.562,0.042-0.667-0.041-0.762c-0.059-0.066-0.136-0.165-0.278-0.217l0.001-0.014l0.007-0.041c0,0,0.097-0.016,0.128-0.022 c0.211-0.039,0.185-0.278,0.006-0.27c-0.05,0.002-0.095,0.004-0.101,0.004l0.058-0.476c0.002-0.022-0.027-0.043-0.074-0.061 l0.014-0.115c0.049-0.008,0.083-0.023,0.086-0.044l0.158-1.302c0.005-0.038-0.085-0.077-0.197-0.089 c-0.114-0.012-0.21,0.009-0.214,0.047l-0.158,1.302c-0.002,0.022,0.027,0.043,0.074,0.061l-0.014,0.115 c-0.049,0.008-0.083,0.023-0.086,0.044l-0.066,0.544h-0.008c-0.106,0.01-0.204,0.044-0.252,0.136c-0.063,0.118-0.2,0.363-0.2,0.55 c0,0.571,0.068,1.174,0.602,1.174c0.211,0,0.369-0.134,0.454-0.207c0,0.129,0.018,0.443-0.028,0.574 c-0.117,0.162-0.32,0.211-0.515,0.205c-0.497-0.014-0.538-0.323-0.512-0.551c0,0-0.113,0.016-0.142,0.186 C29.362,25.95,29,27.779,29,28.674c0,0.566,0.555,0.932,0.709,0.932c0.215,0,0.319-0.057,0.319-0.057l-0.724,12.762 c0,0,0.23,0.688,0.643,0.688c0.594,0,1.006-0.605,1.006-0.605s1.187-7.827,1.28-8.646h0.021c-0.041,1.635,0.52,2.489,0.369,3.101 c-0.151,0.611,0.07,4.541,0.236,5.557c0,0,1.134,0.154,1.445,0.18C35.284,42.67,36,42.524,36,42.333 C35.999,42.058,35.221,42.152,34.469,41.458z M31.631,29.388l-0.346,0.048c-0.043-0.02-0.086-0.063-0.108-0.112 c0.191-0.261-0.014-0.627-0.117-0.872l0.41-0.031C31.618,28.657,31.761,29.001,31.631,29.388z M33.555,26.205v-0.229 c0.047,0,0.655,0.082,0.655,0.359C34.082,26.327,33.713,26.26,33.555,26.205z"/><linearGradient id="XyS27xUHG8anRCGFhA5Wcd" x1="32" x2="32" y1="6" y2="58" gradientUnits="userSpaceOnUse" spreadMethod="reflect"><stop offset="0" stop-color="#1a6dff"/><stop offset="1" stop-color="#c822ff"/></linearGradient><path fill="url(#XyS27xUHG8anRCGFhA5Wcd)" d="M32,6C17.664,6,6,17.664,6,32s11.664,26,26,26s26-11.664,26-26S46.336,6,32,6z M32,8 c5.115,0,9.857,1.613,13.755,4.351c0.173,0.318,2.761,5.175,3.186,11.273c0.316,4.542-0.619,8.539-2.771,11.972 c0.293-1.153,0.465-2.353,0.465-3.596c0-7.043-2.121-12.699-6.302-16.811c-4.295-4.222-9.82-5.905-13.705-6.576 C28.357,8.217,30.153,8,32,8z M22.048,10.169c1.24,0.011,10.646,0.313,16.884,6.446c1.568,1.542,2.797,3.348,3.721,5.38 c-0.889-0.946-1.901-1.77-3.011-2.454c-0.077-0.123-0.174-0.234-0.305-0.317c-6.177-3.924-12.172-5.124-17.82-3.564 c-5.655,1.562-9.758,5.541-12.275,8.733C11.361,18.072,16.042,12.919,22.048,10.169z M44.636,32c0,6.968-5.668,12.636-12.636,12.636 S19.364,38.968,19.364,32c0-4.338,2.199-8.171,5.539-10.448c0.07-0.045,0.14-0.089,0.211-0.133c1.983-1.295,4.346-2.055,6.886-2.055 C38.968,19.364,44.636,25.032,44.636,32z M8,32c0-0.774,0.04-1.539,0.112-2.295c0.422-0.802,5.291-9.729,13.938-12.116 c2.666-0.736,5.436-0.771,8.287-0.123c-2.013,0.229-3.9,0.871-5.582,1.835c-0.022,0.011-0.047,0.011-0.068,0.024 c-0.184,0.11-0.346,0.226-0.525,0.337c-0.148,0.095-0.299,0.185-0.444,0.284c-13.713,8.856-11.142,22.348-8.8,28.891 C10.644,44.501,8,38.554,8,32z M18.328,51.708c-0.006-0.011-0.005-0.024-0.011-0.035c-0.028-0.049-2.814-5.047-3.257-11.313 c-0.318-4.506,0.613-8.484,2.758-11.913c-0.286,1.14-0.454,2.326-0.454,3.553c0,0.363,0.015,0.721,0.042,1.078 c0.21,6.537,2.298,11.837,6.261,15.733c4.289,4.217,9.803,5.902,13.686,6.575C35.63,55.78,33.841,56,32,56 C26.922,56,22.21,54.41,18.328,51.708z M41.927,53.829c-1.324-0.018-10.655-0.346-16.859-6.445c-1.57-1.543-2.799-3.351-3.724-5.385 c0.993,1.055,2.136,1.969,3.401,2.695c0.063,0.07,0.123,0.142,0.208,0.194c4.434,2.739,8.746,4.113,12.88,4.113 c1.739,0,3.446-0.243,5.117-0.73c5.399-1.574,9.305-5.359,11.742-8.472C52.541,46.04,47.879,51.109,41.927,53.829z M42.39,46.352 c-2.748,0.801-5.625,0.85-8.605,0.165c1.951-0.239,3.783-0.861,5.421-1.792c0.035-0.015,0.071-0.024,0.104-0.044 c0.241-0.143,0.456-0.293,0.689-0.438c0.074-0.049,0.151-0.093,0.224-0.143c13.714-8.75,11.221-22.29,8.911-28.882 C53.377,19.548,56,25.472,56,32c0,0.776-0.04,1.542-0.113,2.3C55.524,35.021,50.906,43.868,42.39,46.352z"/></svg>